<?xml version="1.0" encoding="UTF-8" standalone="no"?>
<svg
   xmlns:dc="http://purl.org/dc/elements/1.1/"
   xmlns:cc="http://creativecommons.org/ns#"
   xmlns:rdf="http://www.w3.org/1999/02/22-rdf-syntax-ns#"
   xmlns:svg="http://www.w3.org/2000/svg"
   xmlns="http://www.w3.org/2000/svg"
   xmlns:sodipodi="http://sodipodi.sourceforge.net/DTD/sodipodi-0.dtd"
   xmlns:inkscape="http://www.inkscape.org/namespaces/inkscape"
   inkscape:version="1.0beta2 (2b71d25, 2019-12-03)"
   sodipodi:docname="logo.svg"
   xml:space="preserve"
   style="enable-background:new 0 0 112 29;"
   viewBox="0 0 112 29"
   y="0px"
   x="0px"
   id="レイヤー_1"
   version="1.1"><metadata
   id="metadata73"><rdf:RDF><cc:Work
       rdf:about=""><dc:format>image/svg+xml</dc:format><dc:type
         rdf:resource="http://purl.org/dc/dcmitype/StillImage" /></cc:Work></rdf:RDF></metadata><defs
   id="defs71" /><sodipodi:namedview
   inkscape:current-layer="レイヤー_1"
   inkscape:window-maximized="0"
   inkscape:window-y="0"
   inkscape:window-x="0"
   inkscape:cy="14.5"
   inkscape:cx="56"
   inkscape:zoom="10.044643"
   showgrid="false"
   id="namedview69"
   inkscape:window-height="800"
   inkscape:window-width="1280"
   inkscape:pageshadow="2"
   inkscape:pageopacity="0"
   guidetolerance="10"
   gridtolerance="10"
   objecttolerance="10"
   borderopacity="1"
   inkscape:document-rotation="0"
   bordercolor="#666666"
   pagecolor="#ffffff" />
<style
   id="style10"
   type="text/css">
	.st0{fill:#00B8EE;}
</style>
<g
   style="fill:#333333"
   id="g40">
	<path
   style="fill:#333333"
   id="path12"
   d="M52.8,19l-1,1.7c0,0,1.3,1.9,1.2,2.4h-4.2c6-8.3,6.2-10,6.2-10h-2.1c0,0-0.7,1.4-2,3.4l-1.2-1.6c2.1-3.7,2.1-4.4,2.1-4.4   h-2c0,0.2-1.2,2.2-1.2,2.2h-2.4c0,0-0.8,1.6-2.1,3.7l-1.4-1.5c1.4-2,2.3-4.5,2.3-4.5h-2.1c0,0-2.2,4.5-2.7,4.8l2.7,2.8   c-1,1.6-2.2,3.3-3.5,4.9v1.9h15.8v-1.5C55.3,23.5,53.6,20.1,52.8,19z M41.9,23.1c2.5-3.1,5.3-8.1,5.3-8.1c0.3,0,2,2.3,2.6,3.2   c-0.7,1-1.5,2.1-2.3,3.3l-1.6-2.2l-1.1,1.5c0,0,1.2,1.6,1.5,2.4L41.9,23.1" />
	<path
   style="fill:#333333"
   id="path14"
   d="M51.4,7.9c0.3-0.5,0.8-1.5,1.1-2.8h-2.3c0,0-0.7,2.1-1.3,2.8h-2.5C46,7.2,45.1,5.4,44.7,5h-2.4c0,0,1,1.4,1.6,2.9h-4.1v1.9   h15.6V7.9H51.4z" />
	<path
   style="fill:#333333"
   id="path16"
   d="M35.5,4.9V7c0,0,1.9,0.9,3.9,2.4V7.3C39.3,7.3,38.8,6.5,35.5,4.9z" />
	<path
   style="fill:#333333"
   id="path18"
   d="M35.5,10.1v2.1c0,0,1.9,0.9,3.9,2.4v-2.2C39.3,12.5,38.8,11.7,35.5,10.1z" />
	<path
   style="fill:#333333"
   id="path20"
   d="M39.3,16.8c0,0-2.4,3.9-3.9,5.4v3c0,0,2.3-2.4,3.9-5.1V16.8z" />
	<path
   style="fill:#333333"
   id="path22"
   d="M64.1,5.7c0-0.4,0.1-0.8,0-1.3h-2c0,0,0,0.5,0,1.3h-4.2v1.8h3.8c-0.5,1.2-1.6,2.4-3.8,2.8v1.8c0,0,4.4-0.4,5.8-4.6h2.7v2.2   h-2.1v1.6h4.1V5.7H64.1z" />
	<path
   style="fill:#333333"
   id="path24"
   d="M69.6,5.2v6.1H78V5.2H69.6z M75.8,9.5h-4.2V7h4.2V9.5z" />
	<path
   style="fill:#333333"
   id="path26"
   d="M60.2,12.2V22h16.4v-9.8H60.2z M74.5,20.3H62.3V19h12.2V20.3z M74.5,17.5H62.3v-1.1h12.2V17.5z M74.5,14.9H62.3v-1.1h12.2   V14.9z" />
	<polygon
   style="fill:#333333"
   id="polygon28"
   points="100.9,17.2 83.6,17.2 83.6,6.4 81.6,6.4 81.6,19 89.8,19 89.8,25.8 92,25.8 92,19 100.9,19.1  " />
	<path
   style="fill:#333333"
   id="path30"
   d="M88.2,20.1h-2.3c0,0-1.6,2.3-5,3.3v2.2C80.9,25.7,86.4,23.8,88.2,20.1z" />
	<path
   style="fill:#333333"
   id="path32"
   d="M93.4,20.1c0,0,1.7,3.2,7.5,5.6v-2.2c0,0-3.5-1.3-5.1-3.4H93.4" />
	<path
   style="fill:#333333"
   id="path34"
   d="M65.2,21.7V24c0,0-2.4,1.1-7.1,1.5v-1.8C58.1,23.7,63.7,23.3,65.2,21.7z" />
	<path
   style="fill:#333333"
   id="path36"
   d="M71.4,21.7V24c0,0,2.4,1.1,7.1,1.5v-1.8C78.5,23.7,72.8,23.3,71.4,21.7z" />
	<path
   style="fill:#333333"
   id="path38"
   d="M85.4,5.4v10.3h13.8V5.4H85.4z M97.1,14.1h-9.5v-1.3h9.5V14.1z M97.1,11.3h-9.5V9.9h9.5V11.3z M97.1,8.4h-9.5V7.1h9.5V8.4z   " />
</g>
<g
   id="g66">
	<path
   id="path42"
   d="M17.1,7.5c-0.1,0-0.1,0-0.2,0l-0.1,0.1c-0.1,0.3-0.1,0.6-0.1,0.9l0,0c0,0.1,0,0.1,0,0.2l0,0   c0,0.1,0,0.1,0.1,0.1s0.2,0,0.3,0.1c0,0,0,0,0.1,0V9c0.1,0.1,0.1,0.1,0.1,0.2l0,0c0.2,0.2,0.3,0.2,0.4,0.3c0.1,0,0.1,0.1,0.1,0.1   l0,0c0.2,0.1,0.3,0.2,0.3,0.3c0.1,0.1,0.1,0.2,0.1,0.4v0.1c0,0.1,0,0.2,0.1,0.4c0,0.1,0,0.2,0,0.3l0,0l0,0c0.1,0.1,0.2,0.1,0.3,0.2   v0.1c0,0.1-0.1,0.1-0.1,0.2c0,0.1-0.1,0.1-0.1,0.1c-0.1,0-0.2,0-0.3,0H18c-0.1,0.1-0.2,0.2-0.3,0.3s-0.1,0.1-0.2,0.1l0,0   c0,0.1,0,0.2-0.1,0.3c-0.1,0-0.2-0.1-0.3-0.1s-0.2,0-0.3,0c-0.1,0.1-0.2,0.1-0.2,0.2c-0.1,0.1-0.2,0.2-0.3,0.3c0,0,0,0,0,0.1V13   c0,0,0,0.1,0.1,0.1l0,0c0,0,0,0,0,0.1s0,0.2,0,0.4c0,0.1-0.2,0.2-0.3,0.2c-0.2,0.1-0.4,0.2-0.6,0.3c-0.1,0-0.1,0.1-0.1,0.2   c-0.1,0-0.2,0-0.3,0.1c0,0-0.1,0-0.1,0.1c-0.1,0.1-0.2,0.1-0.2,0.2l0,0c0,0.1,0,0.1,0,0.2c0,0.1-0.1,0.2-0.2,0.3   c-0.1,0.1-0.2,0-0.2,0.1l-0.1,0.1c0,0.1,0,0.1,0,0.2l0,0c0,0.1,0,0.2,0,0.2c0.1,0,0.1,0.1,0.1,0.2c0,0.1-0.1,0.1-0.1,0.1h-0.1   l-0.1,0.1c0,0-0.1,0-0.1,0.1c-0.1,0.1-0.2,0.2-0.3,0.3s-0.2,0.2-0.2,0.3s0,0.1,0,0.2l0,0c-0.1,0-0.1,0-0.2,0   c-0.1,0-0.2,0.1-0.2,0.2c0,0.1,0,0.2,0,0.3L13,17.7c0,0.1-0.2,0.2-0.2,0.3c0,0.2,0,0.3,0,0.5v0.1c0,0.1,0,0.1,0.1,0.2   c0,0.1,0.2,0.1,0.2,0.1c0,0.1,0,0.1,0,0.2s0.1,0.1,0.2,0.1c-0.3,0.2-0.3,0.2-0.2,0.2l0,0c0.1,0,0.2,0,0.2,0.1v0.1   c-0.1,0.1-0.1,0.1-0.2,0.2L13,19.9V20c0,0.2-0.1,0.4,0,0.6c0,0.1,0,0.1,0.1,0.1h0.1c0,0,0,0,0,0.1v0.1c0,0,0,0.1-0.1,0.1   c0,0.1,0.1,0.3,0,0.3c-0.1,0.1-0.2,0.2-0.2,0.3c0,0.1-0.2,0.1-0.2,0.2c-0.1,0.1,0,0.2-0.1,0.2c-0.1,0-0.2,0-0.2,0   c0,0.1,0,0.1,0,0.2s0,0.1-0.1,0.2c-0.1,0-0.1,0.1-0.2,0.1c0,0-0.1,0.1-0.1,0.2s-0.1,0.1-0.1,0.2c0,0,0,0.1-0.1,0.1   c-0.1,0-0.1,0.1-0.1,0.1c-0.1,0.1,0,0.3,0,0.4c0,0,0,0,0,0.1s0,0.1-0.1,0.2c0,0.1,0,0.1-0.1,0.1h-0.1c0,0.1-0.1,0.1-0.1,0.2   s0,0.2,0,0.3l0,0c-0.1,0-0.1,0.1-0.1,0.1c0,0.1,0,0.2,0,0.2v0.1C11.1,24.9,11,24.9,11,25c0,0,0,0,0,0.1s0,0.1,0,0.2v0.1   c0,0.1,0,0.3,0,0.4s-0.1,0.1-0.1,0.1l0,0c-0.1,0.1-0.1,0.1-0.1,0.2c0,0,0,0.1,0,0.2s0.1,0.1,0.1,0.1s0.1,0,0.1,0.1   c0.1,0,0.1,0.1,0.2,0.1c0,0,0.1,0.1,0.2,0.1c0.1,0,0.2,0,0.4,0c0.1,0,0.2,0,0.2,0.1c0.1,0,0.1,0.1,0.1,0.2s0,0.3,0,0.4   c0.1,0.2,0.3,0.3,0.4,0.5c0,0.1,0,0.3,0,0.4h0.1c0-0.3,0-0.5,0-0.8c0-0.1,0-0.1,0-0.2c0,0,0,0,0-0.1c0,0-0.1,0-0.1-0.1V27   c0,0,0.1,0,0-0.1c0-0.2,0-0.4,0-0.6c0-0.1,0.2-0.2,0.2-0.3c0-0.1,0.1-0.2,0.1-0.3c0-0.1,0-0.1,0-0.2c0-0.2-0.2-0.4-0.4-0.4V25   l0.1-0.1c0-0.1,0-0.1,0-0.2c0.1-0.1,0.2-0.1,0.3-0.1c0,0,0.1,0,0-0.1v-0.1c0.1-0.1,0.1-0.1,0.2-0.2c0,0.3,0,0.2,0.1,0.1   c0-0.1,0.1-0.1,0.2-0.3h0.1c0.1,0,0.1,0,0.1-0.1c0,0,0-0.1-0.1-0.1c-0.1-0.1-0.2-0.2-0.2-0.3c0,0,0.1,0,0.1-0.1h0.1   c0.1,0,0.1,0,0.2,0c0.1,0,0.2-0.1,0.2-0.2s0-0.2,0-0.3c0-0.1-0.1-0.1-0.2-0.2l-0.1-0.1c0-0.1,0-0.1,0-0.2s-0.1-0.1-0.1-0.1v-0.1   v-0.1c0-0.2,0.1-0.3,0.1-0.5c0-0.1,0-0.1,0-0.2s0-0.1,0-0.1v-0.1v-0.1c0,0,0,0,0-0.1c0.1-0.1,0.1-0.2,0.2-0.2c0.1,0,0.1,0,0.2,0   c0.1,0,0.1,0.1,0.1,0.1l0.1,0.1l0.1,0.1c0.1,0,0.3,0.1,0.4,0.1h0.1c0,0,0,0,0-0.1s-0.2-0.1-0.1-0.2h0.1c0,0,0.1-0.1,0.1-0.2   c0,0,0,0,0-0.1l0,0v-0.1c0-0.1,0-0.2,0-0.2c0.1-0.1,0.1-0.2,0.2-0.2h0.1c0,0,0.1,0,0.1,0.1h0.1c0.1,0,0.1,0,0.1,0s0,0,0,0.1h0.1   c0,0.1,0,0.1,0.1,0.1c0.1,0.1,0.3,0,0.4-0.1c0.1,0,0.1-0.1,0.1-0.2s0-0.2,0.1-0.3c0.1-0.1,0.2,0,0.2-0.1c0.1,0,0.1,0,0.2,0l0,0   c0,0,0,0,0.1,0.1c0.1,0,0.2,0,0.2,0H17c0,0,0.1,0,0.1,0.1V20h0.1c0.1,0,0.3,0,0.4-0.1c0,0,0.1,0,0.1-0.1c0,0,0.1,0,0.1-0.1   c0,0,0-0.1,0.1-0.1l0.1-0.1c0-0.1,0-0.2,0-0.3c0-0.1-0.1,0-0.2-0.1l0,0c0-0.1,0-0.1,0-0.2s0.1-0.2,0.1-0.3c0-0.1,0-0.1,0.1-0.2   s0-0.2,0-0.4c0,0,0-0.1,0-0.2c0.1-0.1,0.1-0.2,0.2-0.3c0.1,0,0.2,0,0.3,0s0.1,0,0.2,0s0.2-0.1,0.2-0.1c0-0.1,0-0.1,0-0.2   c0,0,0-0.1-0.1-0.1V17l0,0c0.1,0,0.2,0,0.3,0s0.1,0,0.2-0.1c0.1,0,0.2-0.1,0.2-0.2s-0.1-0.3,0-0.4s0.2-0.1,0.4-0.1   c0.3-0.1,0.5-0.1,0.8-0.2c0.1-0.1,0.3-0.1,0.4-0.2c0.1,0,0.1-0.1,0.1-0.2c0.1-0.1,0.2-0.2,0.2-0.3c0,0,0.1-0.1,0.2-0.1l0,0h0.1   c0.1,0,0.3-0.2,0.4-0.2c0.3-0.2,0.6-0.4,1-0.6c0,0,0.1,0,0.1-0.1c0.1-0.1,0.2-0.2,0.3-0.3c0-0.1,0-0.1,0-0.2c0-0.1,0.2-0.1,0.3-0.1   c0.1,0,0.2-0.1,0.2-0.1c0.1,0,0.2-0.1,0.3-0.2l0,0l0,0c0.1,0,0.2-0.2,0.3-0.2c0.1-0.1,0.1-0.1,0.2-0.2c0-0.1,0.2-0.2,0.3-0.3   l0.1-0.1l-0.1-0.1c0-0.1,0-0.1,0-0.2c0,0,0,0,0.1-0.1s0.1-0.1,0.2-0.2c0-0.1,0-0.2,0.1-0.3c0-0.1,0.1-0.1,0.2-0.2   c0.1-0.2,0.1-0.4,0.1-0.7c0-0.1,0.1-0.1,0.1-0.2c0-0.1,0-0.1,0-0.2c0-0.1,0.1-0.3,0.1-0.4c0-0.2,0-0.4,0-0.6c0,0-0.1,0-0.1-0.1   c-0.1-0.1-0.1-0.2-0.2-0.3l-0.1-0.1l-0.1-0.1c-0.1,0-0.1,0-0.2,0c0,0-0.1-0.1-0.1-0.2c0,0,0,0,0-0.1c0-0.1-0.1-0.1-0.1-0.1   c-0.2-0.1-0.4-0.2-0.6-0.2c-0.1,0-0.1,0.1-0.2,0c-0.1,0-0.2-0.1-0.3-0.1c-0.1,0-0.2,0-0.2,0.1c-0.1,0-0.2,0.1-0.3,0   c-0.1-0.2,0-0.4,0-0.5s-0.1-0.1-0.1-0.2c0,0,0-0.1,0-0.2s-0.1-0.1-0.2-0.2c-0.1,0-0.1-0.1-0.2-0.2l-0.1-0.1   c-0.1-0.1-0.2-0.1-0.2-0.2c0-0.2,0-0.4-0.1-0.6c0-0.1-0.1-0.1-0.2-0.2s-0.1-0.2-0.1-0.3l-0.1-0.1c-0.1-0.2,0.2-0.1,0.3-0.2   c0.1,0,0.1-0.1,0.2-0.2c0-0.2,0-0.3,0-0.5c0-0.1,0-0.2-0.1-0.2c-0.1-0.1-0.1-0.2-0.2-0.3V3.9c0-0.1,0.1-0.1,0.1-0.2   c0.1-0.1,0-0.2-0.1-0.3c0-0.1,0-0.3,0-0.4c0-0.1-0.1-0.1-0.2-0.2l-0.1-0.1c-0.1,0-0.2-0.1-0.3,0v0.1c-0.1,0-0.2,0-0.2,0   c0-0.1,0-0.1-0.1-0.2c0-0.1-0.1-0.1-0.1-0.2h-0.1c-0.1,0.1,0,0.3,0,0.4c0,0.1-0.1,0.1-0.1,0.2c-0.1,0.1,0,0.3,0,0.4   c-0.1,0.1-0.2,0.3-0.3,0.4l-0.1,0.1c0,0.2,0,0.4,0.1,0.7c0,0.1,0.1,0,0.2,0h0.1v0.1c0,0.1-0.1,0.1-0.1,0.1c0,0.1,0,0.2,0,0.3   S21,5.2,21,5.2c0,0.1,0,0.2,0,0.2c-0.1,0.1-0.2,0.1-0.3,0.1V5.4c0.3,0.1,0.4,0,0.4,0c0-0.2,0-0.3,0-0.4l0,0c-0.2,0-0.4,0-0.6,0   c-0.1,0-0.2-0.1-0.2-0.2c0,0,0.1-0.1,0.2-0.1c0,0,0,0,0-0.1s-0.1-0.1-0.1-0.2l0.1-0.1c0-0.1,0-0.2,0.1-0.3c0-0.1,0-0.1,0-0.2   c0-0.1-0.1-0.1-0.1-0.2c-0.1,0-0.2,0-0.2,0l-0.1-0.1c0,0,0,0-0.1,0c0,0-0.1,0-0.1,0.1c-0.1,0.1-0.1,0.3-0.2,0.4   c0,0.1-0.1,0.2-0.1,0.4c0,0.1,0,0.1,0,0.2c-0.1,0.2-0.2,0.3-0.2,0.5c0,0.1,0,0.1-0.1,0.1c-0.1,0.1-0.2,0.2-0.3,0.2s-0.2,0.1-0.2,0   h-0.1c-0.1-0.1-0.1-0.3-0.2-0.4V4.9c0-0.1,0-0.2,0-0.2c-0.1-0.1-0.2-0.1-0.3,0S18.1,4.8,18,4.9c-0.1,0.1-0.1,0.2-0.2,0.3   c0,0,0,0.1-0.1,0.1v0.1c-0.1,0.1-0.1,0.1-0.2,0.2c-0.1,0-0.2,0.1-0.2,0.1s0,0.1-0.1,0.1c0,0.1-0.1,0.1-0.2,0.2l0,0   c-0.1,0.1-0.1,0.3-0.1,0.4s0,0.2,0.1,0.2C17.2,6.9,17.2,7.2,17.1,7.5C17.2,7.5,17.2,7.5,17.1,7.5z"
   class="st0" />
	<g
   id="g64">
		<path
   id="path44"
   d="M15.8,13c0,0.4-0.2,0.4-0.5,0.4l0,0l0,0v0.1l0,0l0,0h1.6l0,0l0,0l0,0v-0.1l0,0l0,0l0,0c-0.3,0-0.5,0-0.5-0.4v-2.7    c0-0.4,0.2-0.4,0.5-0.4l0,0l0,0V9.8l0,0l0,0h-1.2l0,0l0,0l0,0l-0.9,2.6l-0.9-2.6l0,0l0,0l0,0h-1.3l0,0l0,0v0.1l0,0l0,0    c0.3,0,0.5,0,0.5,0.4v2.6c0,0.5-0.3,0.6-0.5,0.6l0,0l0,0v0.1l0,0l0,0h1.2l0,0l0,0v-0.1l0,0l0,0c-0.3,0-0.5-0.1-0.5-0.6v-3l1.1,3.6    l0,0l0,0l0,0h0.1l0,0l0,0l0,0l1.2-3.7L15.8,13L15.8,13z" />
		<path
   id="path46"
   d="M19,12.4c0-0.7-0.5-1.2-1.1-1.2c-0.5,0-1.1,0.5-1.1,1.2s0.5,1.2,1.1,1.2S19,13.2,19,12.4z M18,13.5    c-0.3,0-0.3-0.9-0.3-1.1c0-0.2,0-1.1,0.3-1.1c0.3,0,0.3,0.9,0.3,1.1C18.3,12.7,18.3,13.5,18,13.5z" />
		<path
   id="path48"
   d="M19,11.4L19,11.4h0.4V13c0,0.4,0.3,0.7,0.6,0.7c0.2,0,0.6-0.1,0.7-0.7l0,0l0,0h-0.1l0,0l0,0c0,0.4-0.2,0.4-0.3,0.4    s-0.2-0.1-0.2-0.3v-1.7h0.5h0.1l0,0v-0.1l0,0h-0.1h-0.5v-0.9l0,0l0,0H20l0,0l0,0c0,0.1-0.1,0.3-0.2,0.5c-0.2,0.3-0.4,0.3-0.5,0.4    l0,0l0,0L19,11.4L19,11.4z" />
		<path
   id="path50"
   d="M20.8,9.9L20.8,9.9c0.1,0,0.3,0,0.3,0.3v3.1c0,0.2-0.2,0.3-0.2,0.3l0,0l0,0v0.1l0,0l0,0H22l0,0l0,0v-0.1l0,0l0,0l0,0    c-0.1,0-0.2-0.1-0.2-0.3v-1c0.2-0.6,0.5-0.6,0.6-0.6c0.2,0,0.3,0.2,0.3,0.4v1.6l0,0l0,0l0,0h0.8l0,0l0,0v-0.1l0,0l0,0l0,0    c-0.1,0-0.2-0.1-0.2-0.3V12c0-0.3-0.2-0.7-0.6-0.7c-0.5,0-0.9,0.5-0.9,0.5v-2l0,0l0,0l0,0H21l0,0C20.8,9.8,20.8,9.8,20.8,9.9    L20.8,9.9L20.8,9.9z" />
		<path
   id="path52"
   d="M25.4,11.6c-0.2-0.3-0.5-0.4-0.8-0.4c-0.6,0-1.1,0.6-1.1,1.3s0.5,1.2,1.1,1.2c0.5,0,0.8-0.3,0.9-0.5l0,0c0,0,0,0,0-0.1    l0,0l0,0l0,0c0,0,0,0-0.1,0l0,0c-0.1,0.1-0.3,0.3-0.6,0.3c-0.6,0-0.6-0.7-0.6-0.9h1.4l0,0l0,0l0,0C25.6,12.2,25.6,11.9,25.4,11.6z     M24.2,12.3c0-0.3,0-0.9,0.4-0.9c0.3,0,0.3,0.5,0.4,0.9H24.2z" />
		<path
   id="path54"
   d="M25.2,16.1c-0.2-0.3-0.5-0.4-0.8-0.4c-0.6,0-1.1,0.6-1.1,1.3c0,0.7,0.5,1.2,1.1,1.2c0.5,0,0.8-0.3,0.9-0.5l0,0    c0,0,0,0,0-0.1l0,0l0,0l0,0c0,0,0,0-0.1,0l0,0c-0.1,0.1-0.3,0.3-0.6,0.3C24,17.9,24,17.2,24,17h1.4l0,0l0,0l0,0    C25.4,16.7,25.3,16.4,25.2,16.1z M24,16.8c0-0.3,0-0.9,0.4-0.9c0.3,0,0.3,0.5,0.4,0.9H24z" />
		<path
   id="path56"
   d="M27.3,11.2c-0.4,0-0.6,0.4-0.7,0.6v-0.5l0,0l0,0l0,0h-0.8l0,0l0,0l0,0l0,0l0,0c0.2,0,0.3,0,0.3,0.4v1.4    c0,0.2-0.1,0.3-0.2,0.3l0,0l0,0l0,0v0.1l0,0l0,0h1.2l0,0l0,0v-0.1l0,0l0,0H27c-0.1,0-0.2-0.1-0.2-0.3v-0.7c0-0.2,0.2-0.7,0.3-0.7    l0,0c0.1,0.2,0.2,0.3,0.4,0.3c0.2,0,0.4-0.2,0.4-0.4C27.8,11.4,27.6,11.2,27.3,11.2z" />
		<path
   id="path58"
   d="M17.8,16.6h-0.1l0,0l0,0c0,0.2,0,0.4-0.3,0.7c-0.2,0.3-0.5,0.6-0.9,0.6s-0.4-0.2-0.4-0.4v-2.7c0-0.4,0.2-0.4,0.5-0.4l0,0    l0,0v-0.1l0,0l0,0h-1.7l0,0l0,0v0.1l0,0l0,0c0.3,0,0.4,0.1,0.4,0.4v2.7c0,0.4-0.1,0.4-0.4,0.4l0,0l0,0V18l0,0l0,0h2.8l0,0l0,0    v-0.1L17.8,16.6L17.8,16.6L17.8,16.6z" />
		<path
   id="path60"
   d="M20.4,17.6L20.4,17.6C20.3,17.6,20.3,17.6,20.4,17.6L20.4,17.6c-0.1,0.2-0.2,0.2-0.2,0.2c-0.1,0-0.1-0.1-0.1-0.2v-1.2    c0-0.5-0.3-0.7-0.8-0.7c-0.4,0-0.9,0.2-0.9,0.6c0,0.2,0.1,0.4,0.4,0.4s0.4-0.2,0.4-0.4c0-0.1,0-0.2-0.1-0.2L19,16    c0-0.1,0.1-0.1,0.2-0.1c0.2,0,0.4,0.1,0.4,0.4v0.4c-0.4,0.1-1.2,0.4-1.2,1c0,0.4,0.3,0.5,0.6,0.5c0.1,0,0.3,0,0.6-0.2    c0.1,0.1,0.2,0.2,0.4,0.2C20.3,18.2,20.3,17.8,20.4,17.6L20.4,17.6L20.4,17.6z M19.4,17.8c0,0-0.1,0.1-0.2,0.1    c-0.2,0-0.3-0.2-0.3-0.4c0-0.4,0.4-0.6,0.5-0.7V17.8z" />
		<path
   id="path62"
   d="M23.3,18L23.3,18h-0.1c-0.1-0.1-0.2-0.1-0.3-0.3l-0.8-1.2l0.4-0.4c0.1-0.1,0.3-0.2,0.5-0.2h0.1l0,0l0,0v-0.1l0,0l0,0h-1    l0,0l0,0v0.1l0,0l0,0h0.1c0.1,0,0.1,0,0.1,0.1v0.1l-0.9,0.8v-2.7l0,0l0,0l0,0h-0.8l0,0l0,0v0.2l0,0l0,0h0.1c0.2,0,0.2,0.1,0.2,0.3    v3c0,0.1,0,0.1-0.1,0.2c0,0.1-0.1,0.1-0.2,0.1l0,0l0,0v0.1l0,0l0,0h1.1l0,0l0,0V18l0,0l0,0c-0.1,0-0.2-0.1-0.2-0.3v-0.6l0.2-0.2    l0.6,0.8v0.1c0,0,0,0.1-0.1,0.1l0,0l0,0V18l0,0l0,0h1.2l0,0C23.3,18.1,23.3,18.1,23.3,18L23.3,18L23.3,18z" />
	</g>
</g>
</svg>
